<?xml version="1.0" encoding="utf-8"?>
<!-- Generator: Adobe Illustrator 22.1.0, SVG Export Plug-In . SVG Version: 6.00 Build 0)  -->
<svg version="1.1" id="Layer_1" xmlns="http://www.w3.org/2000/svg" xmlns:xlink="http://www.w3.org/1999/xlink" x="0px" y="0px"
	 viewBox="0 0 409 94.2" style="enable-background:new 0 0 409 94.2;" xml:space="preserve">
<style type="text/css">
	.st0{fill:#4D4D4D;}
	.st1{fill:url(#SVGID_1_);}
	.st2{fill:url(#SVGID_2_);}
	.st3{fill:url(#SVGID_3_);}
	.st4{fill:url(#SVGID_4_);}
	.st5{fill:url(#SVGID_5_);}
	.st6{fill:url(#SVGID_6_);}
	.st7{fill:url(#SVGID_7_);}
	.st8{fill:url(#SVGID_8_);}
	.st9{fill:url(#SVGID_9_);}
	.st10{fill:url(#SVGID_10_);}
</style>
<g>
	<path class="st0" d="M127.1,29.7c0.4,0,0.5,0.2,0.5,0.6v30.5c0,0.4-0.2,0.6-0.5,0.6h-0.9c-0.4,0-0.5-0.2-0.5-0.6V40.3
		c0-2.5,0.1-5,0.3-7.5h-0.1c-1.1,2.3-2.2,4.4-3.3,6.4l-7.9,14.1c-0.1,0.3-0.4,0.4-0.7,0.4h-0.6c-0.4,0-0.6-0.1-0.8-0.4l-8.1-14.3
		c-1.1-1.8-2.1-3.9-3.2-6.2h-0.1c0.2,2.6,0.3,5.1,0.3,7.5v20.5c0,0.4-0.2,0.6-0.6,0.6h-0.8c-0.4,0-0.6-0.2-0.6-0.6V30.3
		c0-0.4,0.2-0.6,0.6-0.6h0.7c0.4,0,0.6,0.2,0.8,0.5l12,21.1l11.9-21.1c0.2-0.4,0.5-0.5,0.8-0.5H127.1z"/>
	<path class="st0" d="M160.7,60.9c0.1,0.4,0,0.5-0.4,0.5h-0.8c-0.6,0-0.9-0.2-1-0.5l-4-9.9h-14.8l-3.9,9.9c-0.1,0.3-0.4,0.5-1,0.5
		H134c-0.4,0-0.5-0.2-0.4-0.5L145.9,30c0.1-0.4,0.4-0.5,0.8-0.5h0.9c0.4,0,0.6,0.2,0.8,0.5L160.7,60.9z M147.6,33.5
		c-0.1-0.3-0.2-0.9-0.4-1.9H147c0,0.6-0.1,1.2-0.4,1.9l-6.3,15.8h13.6L147.6,33.5z"/>
	<path class="st0" d="M189,29.7c0.4,0,0.5,0.2,0.5,0.6v30.5c0,0.4-0.2,0.6-0.5,0.6h-0.9c-0.3,0-0.5-0.1-0.6-0.4l-15.8-22.6
		c-0.5-0.8-1.2-1.8-2-3.2c-0.8-1.4-1.3-2.2-1.7-2.6h-0.1c0,0.5,0,1.6,0.1,3.3c0.1,1.7,0.1,3.1,0.1,4.1v20.8c0,0.4-0.2,0.6-0.5,0.6
		h-0.9c-0.4,0-0.6-0.2-0.6-0.6V30.3c0-0.4,0.2-0.6,0.6-0.6h0.9c0.3,0,0.5,0.1,0.6,0.3l15.4,22c0.6,0.8,1.3,2,2.3,3.5
		c0.9,1.5,1.5,2.5,1.8,2.9h0.1c0-0.6,0-1.8-0.1-3.6c-0.1-1.8-0.2-3.3-0.2-4.4V30.2c0-0.4,0.2-0.5,0.6-0.5H189z"/>
	<path class="st0" d="M200.1,50.7c0,5.9,3.3,9.5,9.7,9.5c6.4,0,9.7-3.6,9.7-9.5V30.3c0-0.4,0.2-0.6,0.5-0.6h1c0.4,0,0.5,0.2,0.5,0.6
		v20.4c0,7.1-4.1,11.4-11.7,11.4c-7.7,0-11.8-4.3-11.8-11.4V30.3c0-0.4,0.2-0.6,0.6-0.6h0.9c0.4,0,0.5,0.2,0.5,0.6V50.7z"/>
	<g>
		<g>
			<linearGradient id="SVGID_1_" gradientUnits="userSpaceOnUse" x1="237.4448" y1="45.5511" x2="394.5209" y2="45.5511">
				<stop  offset="0" style="stop-color:#EC9455"/>
				<stop  offset="0.4832" style="stop-color:#C55E69"/>
				<stop  offset="0.8741" style="stop-color:#C1272D"/>
			</linearGradient>
			<path class="st1" d="M249.3,43c-2.5-1-3.6-1.2-6.4-1.5c-4-0.5-5.8-1-5.8-2.7c0-1.6,1.4-2.3,4.2-2.3c2.2,0,3.8,0.8,4.5,2.3
				c0.7,1.3,1.2,1.5,2.4,0.9l4.5-1.9c1.3-0.5,1.7-1.3,1.1-2.5c-2.1-4.3-5.9-6.3-12.5-6.3c-4.2,0-7.4,0.9-9.7,2.7
				c-2.4,1.8-3.5,4.3-3.5,7.3c0,1.9,0.4,3.5,1,4.7c0.5,1.3,1.7,2.3,2.5,2.9c0.8,0.7,2.5,1.3,3.5,1.6c0.4,0.1,1.1,0.3,1.9,0.4
				c1.8,0.4,1.8,0.4,3.7,0.6c3.5,0.5,5.2,1,5.2,2.6c0,1.7-1.6,2.5-4.8,2.5c-2.5,0-4.2-0.8-5-2.4c-0.7-1.2-1.3-1.5-2.6-1l-4.2,1.5
				c-1.3,0.5-1.7,1.1-1.2,2.5c1.7,4.6,6,6.9,13,6.9c4.1,0,7.4-0.9,10-2.7c2.5-1.8,3.8-4.3,3.8-7.5c0-3.2-1.2-5.7-2.6-7.1
				C251.4,44.1,250.5,43.5,249.3,43z"/>
		</g>
		<g>
			<linearGradient id="SVGID_2_" gradientUnits="userSpaceOnUse" x1="237.4448" y1="47.3589" x2="394.5209" y2="47.3589">
				<stop  offset="0" style="stop-color:#EC9455"/>
				<stop  offset="0.4832" style="stop-color:#C55E69"/>
				<stop  offset="0.8741" style="stop-color:#C1272D"/>
			</linearGradient>
			<path class="st2" d="M283.7,56.9c1.4-1.9,2.1-4.4,2.1-7.4v-8c0-7.8-5-12.5-13.7-12.5c-8.8,0-13.8,4.7-13.8,12.5v8
				c0,7.8,5,12.5,13.8,12.5c1.8,0,3.5-0.2,5-0.6l2.9,3.4c0.8,1,1.7,1.1,2.6,0.2l3.3-2.6c1.1-0.9,1.1-1.6,0.2-2.7L283.7,56.9z
				 M276.9,50c0,2.8-1.8,4.3-4.9,4.3c-3.2,0-4.9-1.5-4.9-4.3v-8.8c0-2.8,1.7-4.3,4.9-4.3c3.1,0,4.9,1.5,4.9,4.3V50z"/>
		</g>
		<g>
			<linearGradient id="SVGID_3_" gradientUnits="userSpaceOnUse" x1="237.4448" y1="45.886" x2="394.5209" y2="45.886">
				<stop  offset="0" style="stop-color:#EC9455"/>
				<stop  offset="0.4832" style="stop-color:#C55E69"/>
				<stop  offset="0.8741" style="stop-color:#C1272D"/>
			</linearGradient>
			<path class="st3" d="M316.4,29.7h-5c-1.4,0-1.9,0.5-1.9,1.9v18.6c0,2.7-1.6,4.1-4.6,4.1c-3.1,0-4.6-1.4-4.6-4.1V31.6
				c0-1.4-0.5-1.9-1.9-1.9h-5c-1.4,0-1.9,0.5-1.9,1.9v18.2c0,7.6,4.8,12.3,13.4,12.3c8.7,0,13.5-4.7,13.5-12.3V31.6
				C318.3,30.2,317.8,29.7,316.4,29.7z"/>
		</g>
		<g>
			<linearGradient id="SVGID_4_" gradientUnits="userSpaceOnUse" x1="237.4448" y1="45.5511" x2="394.5209" y2="45.5511">
				<stop  offset="0" style="stop-color:#EC9455"/>
				<stop  offset="0.4832" style="stop-color:#C55E69"/>
				<stop  offset="0.8741" style="stop-color:#C1272D"/>
			</linearGradient>
			<path class="st4" d="M341.6,31.2c-0.4-1.1-1-1.5-2.3-1.5h-5.1c-1.4,0-1.9,0.3-2.3,1.6l-10.3,28.3c-0.4,1.2,0,1.8,1.2,1.8h4.7
				c2.1,0,2.8-0.4,3.3-1.9l1-3.2h9.6l1,3.2c0.4,1.4,1.1,1.9,3.3,1.9h4.8c1.3,0,1.7-0.6,1.3-1.8L341.6,31.2z M333.9,49.3l1.7-5.3
				c0.6-2,0.9-4.1,0.8-6.2h0.4l0,0.9c0,1.2,0.4,3.6,0.9,5.4l1.7,5.2H333.9z"/>
		</g>
		<g>
			<linearGradient id="SVGID_5_" gradientUnits="userSpaceOnUse" x1="237.4448" y1="45.5511" x2="394.5209" y2="45.5511">
				<stop  offset="0" style="stop-color:#EC9455"/>
				<stop  offset="0.4832" style="stop-color:#C55E69"/>
				<stop  offset="0.8741" style="stop-color:#C1272D"/>
			</linearGradient>
			<path class="st5" d="M377.3,51.6c-0.3-0.7-0.7-1.3-1.2-1.9c3.2-1.8,4.8-4.9,4.8-9.2c0-6.8-4.3-10.8-11.1-10.8h-12.7
				c-1.4,0-1.9,0.5-1.9,1.9v27.9c0,1.4,0.5,1.9,1.9,1.9h5c1.4,0,1.9-0.5,1.9-1.9v-8.7h1c1.7,0,2.5,0.7,3.3,2.3l2.9,6.1
				c0.7,1.6,1.8,2.1,4.1,2.1h4.8c1.4,0,1.8-1,1.2-2.2L377.3,51.6z M368.8,43.4H364v-5.9h4.8c1.9,0,2.9,1.1,2.9,2.9
				C371.8,42.2,370.6,43.4,368.8,43.4z"/>
		</g>
		<g>
			<linearGradient id="SVGID_6_" gradientUnits="userSpaceOnUse" x1="237.4448" y1="45.5511" x2="394.5209" y2="45.5511">
				<stop  offset="0" style="stop-color:#EC9455"/>
				<stop  offset="0.4832" style="stop-color:#C55E69"/>
				<stop  offset="0.8741" style="stop-color:#C1272D"/>
			</linearGradient>
			<path class="st6" d="M407.2,53.6H395v-4.3h9.4c1.4,0,1.9-0.5,1.9-1.9v-4c0-1.4-0.5-1.9-1.9-1.9H395v-4h11.8
				c1.4,0,1.9-0.5,1.9-1.9v-4c0-1.4-0.5-1.9-1.9-1.9h-18.7c-1.4,0-1.9,0.5-1.9,1.9v27.9c0,1.4,0.5,1.9,1.9,1.9h19.1
				c1.4,0,1.9-0.5,1.9-1.9v-4.1C409,54,408.5,53.6,407.2,53.6z"/>
		</g>
	</g>
</g>
<path class="st0" d="M74.7,22.9c-0.8-1.2-2.1-1.8-3.4-1.8c-0.7,0-1.5,0.2-2.2,0.6l-30,19.3l-30-19.3c-0.7-0.4-1.4-0.6-2.2-0.6
	c-1.3,0-2.6,0.6-3.4,1.8C3.1,23.7,3,24.5,3,25.4c0,0.1,0,0.2,0,0.2v43.5c0,2.2,1.8,4,4,4s4-1.8,4-4V32.4l25.8,16.6c0,0,0,0,0.1,0
	c0.7,0.5,1.5,0.7,2.3,0.7c0.7,0,1.5-0.2,2.1-0.6l26-16.8v36.7c0,2.2,1.8,4,4,4h0c2.2,0,4-1.8,4-4V25.6c0-0.1,0-0.2,0-0.2
	C75.4,24.5,75.2,23.7,74.7,22.9z"/>
<g>
	<linearGradient id="SVGID_7_" gradientUnits="userSpaceOnUse" x1="9.7374" y1="83.7966" x2="68.6031" y2="83.7966">
		<stop  offset="0" style="stop-color:#EC9455"/>
		<stop  offset="0.4415" style="stop-color:#C55E69"/>
		<stop  offset="0.7941" style="stop-color:#C1272D"/>
	</linearGradient>
	<path class="st7" d="M65.8,73.4L39.2,90.6L12.5,73.4c-0.7,0.9-1.7,1.7-2.8,2.1l28.5,18.4c0.5,0.3,1.1,0.3,1.6,0.1
		c0.1,0,0.2-0.1,0.3-0.2l28.4-18.3C67.5,75.1,66.6,74.3,65.8,73.4z"/>
</g>
<g>
	<linearGradient id="SVGID_8_" gradientUnits="userSpaceOnUse" x1="9.7063" y1="10.2807" x2="68.6343" y2="10.2807">
		<stop  offset="0" style="stop-color:#EC9455"/>
		<stop  offset="0.4415" style="stop-color:#C55E69"/>
		<stop  offset="0.7941" style="stop-color:#C1272D"/>
	</linearGradient>
	<path class="st8" d="M12.9,20.6L39.2,3.6l26.3,16.9l2.1-1.4c0.3-0.2,0.7-0.4,1.1-0.6L40.1,0.3c-0.3-0.2-0.6-0.3-1-0.3
		c-0.3,0-0.7,0.1-1,0.3L9.7,18.6c0.4,0.2,0.7,0.3,1.1,0.6L12.9,20.6z"/>
</g>
<g>
	<linearGradient id="SVGID_9_" gradientUnits="userSpaceOnUse" x1="14" y1="74.9623" x2="64.3405" y2="74.9623">
		<stop  offset="0" style="stop-color:#EC9455"/>
		<stop  offset="0.4415" style="stop-color:#C55E69"/>
		<stop  offset="0.7941" style="stop-color:#C1272D"/>
	</linearGradient>
	<path class="st9" d="M39.2,81.4L14,65.2v3.7l24.4,15.8c0.4,0.3,0.9,0.3,1.3,0.1c0.1,0,0.2-0.1,0.3-0.1l24.3-15.8v-3.7L39.2,81.4z"
		/>
</g>
<g>
	<linearGradient id="SVGID_10_" gradientUnits="userSpaceOnUse" x1="17.0896" y1="17.2246" x2="61.251" y2="17.2246">
		<stop  offset="0" style="stop-color:#EC9455"/>
		<stop  offset="0.4415" style="stop-color:#C55E69"/>
		<stop  offset="0.7941" style="stop-color:#C1272D"/>
	</linearGradient>
	<path class="st10" d="M39.2,12.8l19.2,12.4l2.9-1.9L39.9,9.5c-0.2-0.2-0.5-0.2-0.8-0.2c-0.3,0-0.5,0.1-0.8,0.2L17.1,23.3l2.9,1.9
		L39.2,12.8z"/>
</g>
</svg>
